<?xml version="1.0" standalone="no"?>
<!DOCTYPE svg PUBLIC "-//W3C//DTD SVG 20010904//EN"
 "http://www.w3.org/TR/2001/REC-SVG-20010904/DTD/svg10.dtd">
<svg version="1.0" xmlns="http://www.w3.org/2000/svg"
 width="3000.000000pt" height="3000.000000pt" viewBox="0 0 3000.000000 3000.000000"
 preserveAspectRatio="xMidYMid meet">

<g transform="translate(0.000000,3000.000000) scale(0.100000,-0.100000)"
fill="#000000" stroke="none">
<path d="M60 26335 l0 -3605 3605 0 3605 0 0 3605 0 3605 -3605 0 -3605 0 0
-3605z m6180 0 l0 -2575 -2575 0 -2575 0 0 2575 0 2575 2575 0 2575 0 0 -2575z"/>
<path d="M2120 26335 l0 -1545 1545 0 1545 0 0 1545 0 1545 -1545 0 -1545 0 0
-1545z"/>
<path d="M8300 27880 l0 -2060 1030 0 1030 0 0 515 0 515 515 0 515 0 0 -515
0 -515 515 0 515 0 0 1030 0 1030 -515 0 -515 0 0 1030 0 1030 -1545 0 -1545
0 0 -2060z m2060 -515 l0 -515 -515 0 -515 0 0 515 0 515 515 0 515 0 0 -515z"/>
<path d="M12420 29425 l0 -515 515 0 515 0 0 515 0 515 -515 0 -515 0 0 -515z"/>
<path d="M14480 29425 l0 -515 1030 0 1030 0 0 -515 0 -515 -1030 0 -1030 0 0
-515 0 -515 -515 0 -515 0 0 -515 0 -515 515 0 515 0 0 -515 0 -515 1545 0
1545 0 0 -515 0 -515 -515 0 -515 0 0 -1030 0 -1030 515 0 515 0 0 -515 0
-515 -1030 0 -1030 0 0 1545 0 1545 -515 0 -515 0 0 -1030 0 -1030 -515 0
-515 0 0 1545 0 1545 -1030 0 -1030 0 0 -515 0 -515 -515 0 -515 0 0 -515 0
-515 -515 0 -515 0 0 1030 0 1030 -515 0 -515 0 0 -1030 0 -1030 515 0 515 0
0 -515 0 -515 515 0 515 0 0 515 0 515 515 0 515 0 0 515 0 515 515 0 515 0 0
-1030 0 -1030 -515 0 -515 0 0 -515 0 -515 -2060 0 -2060 0 0 515 0 515 -1545
0 -1545 0 0 -515 0 -515 -515 0 -515 0 0 -515 0 -515 -515 0 -515 0 0 -515 0
-515 515 0 515 0 0 515 0 515 515 0 515 0 0 515 0 515 515 0 515 0 0 -1030 0
-1030 -515 0 -515 0 0 -1030 0 -1030 515 0 515 0 0 -515 0 -515 -515 0 -515 0
0 -515 0 -515 -515 0 -515 0 0 515 0 515 -515 0 -515 0 0 515 0 515 515 0 515
0 0 515 0 515 -515 0 -515 0 0 -515 0 -515 -1030 0 -1030 0 0 -515 0 -515
1030 0 1030 0 0 -515 0 -515 -1030 0 -1030 0 0 -515 0 -515 515 0 515 0 0
-515 0 -515 -515 0 -515 0 0 -515 0 -515 515 0 515 0 0 515 0 515 1030 0 1030
0 0 515 0 515 515 0 515 0 0 515 0 515 2060 0 2060 0 0 -515 0 -515 515 0 515
0 0 -515 0 -515 -515 0 -515 0 0 -515 0 -515 -1030 0 -1030 0 0 515 0 515 515
0 515 0 0 515 0 515 -1030 0 -1030 0 0 -515 0 -515 -515 0 -515 0 0 -515 0
-515 1030 0 1030 0 0 -515 0 -515 -515 0 -515 0 0 -1030 0 -1030 1030 0 1030
0 0 515 0 515 515 0 515 0 0 1030 0 1030 1030 0 1030 0 0 -515 0 -515 515 0
515 0 0 -515 0 -515 -1030 0 -1030 0 0 -515 0 -515 -515 0 -515 0 0 -515 0
-515 515 0 515 0 0 515 0 515 1030 0 1030 0 0 515 0 515 515 0 515 0 0 -515 0
-515 515 0 515 0 0 -515 0 -515 1030 0 1030 0 0 -515 0 -515 -515 0 -515 0 0
-515 0 -515 -515 0 -515 0 0 515 0 515 -515 0 -515 0 0 -515 0 -515 -515 0
-515 0 0 515 0 515 -515 0 -515 0 0 -515 0 -515 -515 0 -515 0 0 515 0 515
-515 0 -515 0 0 -1030 0 -1030 515 0 515 0 0 -1030 0 -1030 -515 0 -515 0 0
-1030 0 -1030 1030 0 1030 0 0 515 0 515 -515 0 -515 0 0 515 0 515 515 0 515
0 0 1030 0 1030 1030 0 1030 0 0 -515 0 -515 -515 0 -515 0 0 -1030 0 -1030
515 0 515 0 0 -515 0 -515 1030 0 1030 0 0 1030 0 1030 1030 0 1030 0 0 -515
0 -515 515 0 515 0 0 -515 0 -515 515 0 515 0 0 515 0 515 515 0 515 0 0 1030
0 1030 -1545 0 -1545 0 0 1030 0 1030 -515 0 -515 0 0 515 0 515 1030 0 1030
0 0 -1030 0 -1030 515 0 515 0 0 1545 0 1545 515 0 515 0 0 -1545 0 -1545 515
0 515 0 0 -515 0 -515 515 0 515 0 0 -515 0 -515 -515 0 -515 0 0 -1030 0
-1030 2575 0 2575 0 0 515 0 515 515 0 515 0 0 515 0 515 515 0 515 0 0 -1030
0 -1030 515 0 515 0 0 515 0 515 515 0 515 0 0 1545 0 1545 -515 0 -515 0 0
1030 0 1030 515 0 515 0 0 3090 0 3090 -515 0 -515 0 0 515 0 515 515 0 515 0
0 1545 0 1545 -515 0 -515 0 0 515 0 515 515 0 515 0 0 2060 0 2060 -2060 0
-2060 0 0 -515 0 -515 -515 0 -515 0 0 515 0 515 -515 0 -515 0 0 -515 0 -515
-1030 0 -1030 0 0 2060 0 2060 -1030 0 -1030 0 0 515 0 515 515 0 515 0 0 515
0 515 -515 0 -515 0 0 515 0 515 1030 0 1030 0 0 515 0 515 -1030 0 -1030 0 0
515 0 515 -2575 0 -2575 0 0 -515z m5150 -1030 l0 -515 -515 0 -515 0 0 515 0
515 515 0 515 0 0 -515z m-3090 -2060 l0 -515 -1030 0 -1030 0 0 515 0 515
1030 0 1030 0 0 -515z m3090 0 l0 -515 -1030 0 -1030 0 0 515 0 515 1030 0
1030 0 0 -515z m0 -2060 l0 -515 515 0 515 0 0 -1545 0 -1545 515 0 515 0 0
-515 0 -515 -515 0 -515 0 0 -515 0 -515 1545 0 1545 0 0 515 0 515 2575 0
2575 0 0 -515 0 -515 -515 0 -515 0 0 -1030 0 -1030 -2575 0 -2575 0 0 515 0
515 -1545 0 -1545 0 0 -515 0 -515 1030 0 1030 0 0 -1030 0 -1030 1030 0 1030
0 0 515 0 515 1030 0 1030 0 0 -515 0 -515 1030 0 1030 0 0 515 0 515 515 0
515 0 0 -515 0 -515 -515 0 -515 0 0 -1545 0 -1545 515 0 515 0 0 -515 0 -515
-515 0 -515 0 0 -515 0 -515 515 0 515 0 0 -1545 0 -1545 -515 0 -515 0 0
-1030 0 -1030 515 0 515 0 0 -515 0 -515 -1545 0 -1545 0 0 -1030 0 -1030
-515 0 -515 0 0 515 0 515 -1030 0 -1030 0 0 1030 0 1030 2060 0 2060 0 0 515
0 515 -515 0 -515 0 0 515 0 515 1030 0 1030 0 0 515 0 515 -1030 0 -1030 0 0
515 0 515 515 0 515 0 0 515 0 515 -515 0 -515 0 0 515 0 515 -515 0 -515 0 0
515 0 515 1030 0 1030 0 0 515 0 515 -2060 0 -2060 0 0 -515 0 -515 -515 0
-515 0 0 -515 0 -515 515 0 515 0 0 -515 0 -515 -1030 0 -1030 0 0 515 0 515
-515 0 -515 0 0 -1030 0 -1030 515 0 515 0 0 -515 0 -515 -515 0 -515 0 0 515
0 515 -515 0 -515 0 0 1030 0 1030 515 0 515 0 0 515 0 515 -1030 0 -1030 0 0
-515 0 -515 -515 0 -515 0 0 515 0 515 515 0 515 0 0 515 0 515 -515 0 -515 0
0 515 0 515 -515 0 -515 0 0 515 0 515 -515 0 -515 0 0 -515 0 -515 -515 0
-515 0 0 -515 0 -515 1030 0 1030 0 0 -515 0 -515 -1030 0 -1030 0 0 515 0
515 -515 0 -515 0 0 -515 0 -515 -1030 0 -1030 0 0 515 0 515 1030 0 1030 0 0
515 0 515 -1545 0 -1545 0 0 515 0 515 1030 0 1030 0 0 515 0 515 -515 0 -515
0 0 515 0 515 -515 0 -515 0 0 -515 0 -515 -515 0 -515 0 0 515 0 515 515 0
515 0 0 515 0 515 -515 0 -515 0 0 515 0 515 -515 0 -515 0 0 -515 0 -515
-1030 0 -1030 0 0 515 0 515 1030 0 1030 0 0 515 0 515 -515 0 -515 0 0 515 0
515 515 0 515 0 0 -515 0 -515 2060 0 2060 0 0 515 0 515 515 0 515 0 0 515 0
515 515 0 515 0 0 -515 0 -515 515 0 515 0 0 -515 0 -515 -515 0 -515 0 0 515
0 515 -515 0 -515 0 0 -515 0 -515 -515 0 -515 0 0 -515 0 -515 -515 0 -515 0
0 -1030 0 -1030 515 0 515 0 0 515 0 515 515 0 515 0 0 515 0 515 515 0 515 0
0 -515 0 -515 -515 0 -515 0 0 -515 0 -515 515 0 515 0 0 -515 0 -515 1030 0
1030 0 0 -515 0 -515 515 0 515 0 0 1545 0 1545 -515 0 -515 0 0 -515 0 -515
-515 0 -515 0 0 1030 0 1030 1030 0 1030 0 0 515 0 515 515 0 515 0 0 515 0
515 515 0 515 0 0 1030 0 1030 -515 0 -515 0 0 515 0 515 515 0 515 0 0 515 0
515 515 0 515 0 0 -515z m-12360 -8240 l0 -515 -515 0 -515 0 0 515 0 515 515
0 515 0 0 -515z m-4120 -2060 l0 -515 -515 0 -515 0 0 515 0 515 515 0 515 0
0 -515z m4120 -4120 l0 -515 -515 0 -515 0 0 515 0 515 515 0 515 0 0 -515z
m6180 0 l0 -515 -515 0 -515 0 0 515 0 515 515 0 515 0 0 -515z m2060 -515 l0
-1030 -515 0 -515 0 0 1030 0 1030 515 0 515 0 0 -1030z m2060 -515 l0 -515
-515 0 -515 0 0 515 0 515 515 0 515 0 0 -515z m7210 -2060 l0 -1545 -1545 0
-1545 0 0 1545 0 1545 1545 0 1545 0 0 -1545z m-11330 -2060 l0 -515 1030 0
1030 0 0 -515 0 -515 -1030 0 -1030 0 0 515 0 515 -515 0 -515 0 0 515 0 515
515 0 515 0 0 -515z m0 -3090 l0 -515 -515 0 -515 0 0 515 0 515 515 0 515 0
0 -515z"/>
<path d="M18600 23245 l0 -515 515 0 515 0 0 515 0 515 -515 0 -515 0 0 -515z"/>
<path d="M18600 19640 l0 -1030 -515 0 -515 0 0 -3090 0 -3090 515 0 515 0 0
515 0 515 515 0 515 0 0 -515 0 -515 515 0 515 0 0 515 0 515 515 0 515 0 0
-515 0 -515 515 0 515 0 0 515 0 515 -515 0 -515 0 0 515 0 515 -1545 0 -1545
0 0 515 0 515 515 0 515 0 0 515 0 515 -515 0 -515 0 0 515 0 515 515 0 515 0
0 1545 0 1545 -515 0 -515 0 0 -1030z"/>
<path d="M23750 18095 l0 -515 1545 0 1545 0 0 515 0 515 -1545 0 -1545 0 0
-515z"/>
<path d="M12420 13975 l0 -515 515 0 515 0 0 515 0 515 -515 0 -515 0 0 -515z"/>
<path d="M23750 13975 l0 -515 515 0 515 0 0 515 0 515 -515 0 -515 0 0 -515z"/>
<path d="M26840 10885 l0 -515 515 0 515 0 0 515 0 515 -515 0 -515 0 0 -515z"/>
<path d="M22720 6765 l0 -515 515 0 515 0 0 515 0 515 -515 0 -515 0 0 -515z"/>
<path d="M22720 26335 l0 -3605 3605 0 3605 0 0 3605 0 3605 -3605 0 -3605 0
0 -3605z m6180 0 l0 -2575 -2575 0 -2575 0 0 2575 0 2575 2575 0 2575 0 0
-2575z"/>
<path d="M24780 26335 l0 -1545 1545 0 1545 0 0 1545 0 1545 -1545 0 -1545 0
0 -1545z"/>
<path d="M60 21185 l0 -515 1030 0 1030 0 0 515 0 515 -1030 0 -1030 0 0 -515z"/>
<path d="M60 19125 l0 -515 515 0 515 0 0 515 0 515 -515 0 -515 0 0 -515z"/>
<path d="M2120 10370 l0 -1030 -1030 0 -1030 0 0 -515 0 -515 1545 0 1545 0 0
515 0 515 515 0 515 0 0 515 0 515 -515 0 -515 0 0 515 0 515 -515 0 -515 0 0
-1030z"/>
<path d="M60 3675 l0 -3605 3605 0 3605 0 0 3605 0 3605 -3605 0 -3605 0 0
-3605z m6180 0 l0 -2575 -2575 0 -2575 0 0 2575 0 2575 2575 0 2575 0 0 -2575z"/>
<path d="M2120 3675 l0 -1545 1545 0 1545 0 0 1545 0 1545 -1545 0 -1545 0 0
-1545z"/>
</g>
</svg>
